<svg width="137" height="185" viewBox="0 0 137 185" fill="none" xmlns="http://www.w3.org/2000/svg">
<path fill-rule="evenodd" clip-rule="evenodd" d="M37.9694 177.966C71.6422 194.577 112.405 180.745 129.016 147.073C133.068 138.858 135.142 130.01 135.963 120.381C138.507 90.5383 125.784 52.2882 131.064 0.878906C83.6004 40.4114 43.7392 45.1577 21.1832 67.7183C15.2816 73.6211 10.5205 79.9371 7.07578 86.9202C-9.53485 120.593 4.29671 161.356 37.9694 177.966ZM67.4798 171.907C97.3032 171.907 121.48 147.73 121.48 117.907C121.48 88.0837 97.3032 63.9071 67.4798 63.9071C37.6564 63.9071 13.4798 88.0837 13.4798 117.907C13.4798 147.73 37.6564 171.907 67.4798 171.907Z" fill="#51B586"/>
<path d="M121.479 117.907C121.479 147.731 97.3029 171.907 67.4795 171.907C37.6561 171.907 13.4795 147.731 13.4795 117.907C13.4795 88.0839 37.6561 63.9072 67.4795 63.9072C97.3029 63.9072 121.479 88.0839 121.479 117.907Z" fill="#F85646"/>
<circle cx="58.0449" cy="134.56" r="32" fill="#F6AC33"/>
</svg>
