<svg width="942" height="599" viewBox="0 0 942 599" fill="none" xmlns="http://www.w3.org/2000/svg">
<path d="M474.239 117.533C474.239 151.199 446.947 178.492 413.28 178.492C379.614 178.492 352.321 151.199 352.321 117.533C352.321 83.866 379.614 56.5737 413.28 56.5737C446.947 56.5737 474.239 83.866 474.239 117.533Z" fill="#F85646"/>
<path fill-rule="evenodd" clip-rule="evenodd" d="M160.314 225.092C156.957 225.947 153.007 226.926 151.538 227.268C147.845 228.129 146.291 228.83 142.762 231.231C133.981 237.203 129.197 244.437 125.833 256.828L123.797 264.331L123.74 328.435C123.695 379.293 123.892 393.327 124.693 396.354C128.122 409.325 129.856 412.533 137.246 419.573C142.639 424.711 143.419 425.139 153.45 428.46C160.803 430.895 162.038 431.077 171.152 431.077C181.664 431.077 187.913 429.85 195.949 426.208C203.765 422.665 210.241 416.156 213.885 408.183C219.439 396.031 219.699 391.772 219.218 321.103C218.835 264.88 218.541 258.05 216.255 252.121C214.216 246.835 211.74 241.818 211.17 241.818C210.834 241.818 210.07 240.874 209.475 239.72C208.306 237.454 206.755 236.052 200.791 231.872C190.88 224.924 172.847 221.903 160.314 225.092ZM882.489 224.725C880.18 225.386 875.926 226.609 873.034 227.441C867.297 229.091 861.845 232.689 856.904 238.083C853.005 242.341 851.029 245.568 848.018 252.601C845.673 258.077 845.608 258.539 845.552 270.055C845.497 281.404 845.592 282.162 847.881 288.752C851.759 299.917 857.506 310.584 862.335 315.581C863.136 316.411 865.681 319.254 867.989 321.899C870.298 324.545 876.237 330.875 881.188 335.967C892.613 347.716 904.62 361.485 904.62 362.839C904.62 363.094 905.353 364.333 906.248 365.59C908.881 369.288 910.725 376.42 910.725 382.907C910.725 398.094 905.078 405.156 892.967 405.114C887.496 405.095 883.166 403.398 880.018 400.043C877.454 397.311 874.354 388.686 873.324 381.423C872.112 372.876 872.012 372.783 864.661 373.303C855.251 373.968 844.788 375.584 844.104 376.478C843.36 377.451 844.152 391.09 845.257 396.354C845.699 398.453 847.044 402.325 848.248 404.959C849.452 407.592 850.437 409.948 850.437 410.193C850.437 410.839 853.245 413.995 858.248 418.97C866.348 427.025 877.21 430.696 892.945 430.696C899.988 430.696 903.307 430.409 903.973 429.742C904.496 429.217 905.801 428.788 906.871 428.787C909.862 428.787 916.698 425.96 921.981 422.539C924.605 420.841 926.751 419.213 926.751 418.922C926.751 418.631 927.716 417.384 928.895 416.15C931.663 413.252 935.351 407.665 936.419 404.749C939.483 396.384 941.537 384.584 940.917 378.9C939.659 367.344 934.18 351.6 929.713 346.701C928.924 345.834 928.277 344.858 928.277 344.532C928.277 343.084 920.1 333.94 905.765 319.356C894.194 307.584 887.069 299.864 887.066 299.093C887.065 298.862 886.05 297.486 884.812 296.037C881.739 292.442 877.998 285.13 877.04 280.844C873.258 263.933 877.494 252.663 888.134 251.334C897.378 250.179 902.749 252.944 906.199 260.632C907.429 263.374 908.438 266.53 908.44 267.645C908.448 271.324 910.073 275.624 912.294 277.846C914.471 280.024 914.519 280.033 921.571 279.567C930.284 278.993 936.471 277.865 937.178 276.721C938.239 275.004 937.367 261.327 935.877 256.318C933.934 249.792 931.234 243.336 929.654 241.437C928.955 240.597 927.444 238.764 926.297 237.362C920.142 229.843 907.095 224.387 893.936 223.83C888.818 223.613 885.452 223.876 882.489 224.725ZM32.4819 226.133C24.9916 227.886 23.4707 228.493 19.2979 231.398C11.2261 237.019 4.79512 246.575 2.14321 256.89C0.935917 261.584 0.81839 267.861 0.81839 327.672C0.81839 400.736 0.758103 399.779 6.00012 409.837C11.2353 419.88 14.7358 423.525 22.6274 427.152C30.5412 430.789 32.9153 431.235 42.8056 430.944C51.5764 430.685 52.1961 430.555 58.0173 427.758C63.9378 424.915 68.2457 421.391 70.9899 417.15C72.8764 414.233 74.131 414.521 75.9763 418.295C79.1113 424.703 79.9347 425.77 82.6133 426.889C84.1083 427.513 87.1868 428.025 89.4549 428.025C93.1989 428.025 93.6476 427.842 94.3367 426.029C94.819 424.761 95.0205 405.933 94.89 374.326L94.6847 324.619L72.646 324.416C57.0229 324.273 50.3027 324.467 49.561 325.082C48.1263 326.274 48.0423 346.736 49.4686 347.659C49.9937 347.999 53.8567 348.448 58.054 348.658L65.6854 349.04L65.6525 370.026C65.6213 390.186 65.5541 391.134 63.9378 394.104C61.7537 398.117 58.012 401.7 54.4534 403.184C51.1864 404.547 44.2625 404.741 41.1237 403.558C38.2314 402.467 34.2455 398.554 32.2308 394.828C30.5839 391.782 30.5801 391.657 30.3588 330.343C30.197 285.496 30.3764 267.983 31.0243 265.476C32.5986 259.381 34.6858 255.819 37.949 253.659C40.8612 251.732 41.5167 251.615 48.0324 251.86C54.4252 252.099 55.2418 252.31 57.9074 254.41C59.5413 255.698 61.7041 258.537 62.8472 260.897C64.7421 264.806 64.9092 265.993 65.2839 278.223C65.5709 287.6 65.9715 291.635 66.6874 292.341C67.9504 293.588 91.7756 293.333 93.3149 292.056C95.1739 290.513 94.0055 259.212 91.945 255.355C91.5497 254.615 90.6774 252.395 90.0066 250.419C87.4478 242.882 80.62 234.68 74.1425 231.363C72.849 230.7 71.5905 229.85 71.3471 229.474C71.1029 229.098 66.8102 227.774 61.8078 226.534C50.6538 223.768 43.0346 223.663 32.4819 226.133ZM240.826 227.53L238.155 228.492L238.275 233.656C238.34 236.495 238.726 239.237 239.132 239.746C239.538 240.256 240.094 242.391 240.368 244.489C241.498 253.156 243.269 262.926 244.032 264.713C244.48 265.762 245.128 269.196 245.472 272.344C246.529 282.018 247.342 287.183 247.966 288.193C248.295 288.724 248.863 291.815 249.229 295.06C250.003 301.923 251.905 313.358 253.002 317.751C253.421 319.43 254.5 326.126 255.399 332.632C257.191 345.589 257.874 349.955 259.102 356.289C259.55 358.598 260.412 363.577 261.018 367.355C261.624 371.133 262.989 379.031 264.052 384.907C265.116 390.783 265.99 396.621 265.993 397.881C265.998 399.14 266.5 401.715 267.11 403.604C267.719 405.493 268.747 411.159 269.393 416.196C271.106 429.535 269.888 428.87 292.123 428.611C306.855 428.44 309.821 428.219 310.314 427.262C310.638 426.632 311.3 422.683 311.785 418.485C312.269 414.288 313.156 408.45 313.755 405.512C314.354 402.574 315.519 395.191 316.343 389.105C317.611 379.746 319.704 367.487 323.313 348.277C323.707 346.178 324.346 341.542 324.734 337.974C325.989 326.407 326.875 320.669 327.634 319.196C328.042 318.401 328.631 315.862 328.943 313.554C329.516 309.296 330.205 305.109 331.575 297.528C331.993 295.219 332.855 289.209 333.492 284.173C334.129 279.136 335.022 273.298 335.476 271.199C336.137 268.148 338.929 252.16 342.007 233.805C342.287 232.141 341.903 230.918 340.601 229.325L338.81 227.135L326.858 227.036C317.153 226.955 314.692 227.152 313.76 228.083C313.008 228.834 312.184 232.776 311.368 239.53C310.683 245.196 309.85 252.064 309.516 254.792C309.183 257.52 308.558 261.469 308.127 263.568C307.697 265.667 306.95 271.505 306.467 276.541C305.984 281.578 305.106 288.618 304.514 292.186C303.923 295.753 302.724 304.167 301.849 310.883C300.975 317.598 299.963 323.78 299.601 324.619C299.239 325.459 298.741 328.549 298.494 331.487C298.074 336.48 297.621 340.515 295.814 355.336C295.417 358.588 294.388 365.886 293.526 371.552C292.665 377.219 291.959 382.971 291.958 384.335C291.957 386.242 291.629 386.815 290.54 386.815C289.336 386.815 289.046 385.98 288.612 381.282C288.099 375.732 287.419 371.078 285.46 359.724C284.88 356.366 284.188 351.215 283.922 348.277C283.133 339.583 281.423 326.625 280.965 325.884C280.731 325.506 280.203 322.492 279.79 319.185C279.378 315.877 278.528 309.738 277.901 305.541C276.864 298.592 276.068 292.918 273.619 275.015C273.16 271.657 272.464 267.365 272.073 265.476C271.344 261.955 268.299 236.077 268.299 233.406C268.299 232.59 267.297 230.8 266.073 229.43L263.847 226.937L253.672 226.752C246.965 226.631 242.586 226.896 240.826 227.53ZM369.183 227.1C368.201 227.287 367.106 228.274 366.703 229.335C366.262 230.493 365.981 269.321 365.981 328.839C365.981 425.311 365.998 426.454 367.491 427.253C368.433 427.757 373.956 427.982 382.182 427.852L395.362 427.643L395.556 327.845L395.749 228.046L393.789 227.301C391.888 226.578 372.731 226.421 369.183 227.1ZM710.92 227.539C709.271 228.37 708.887 229.327 708.085 234.588C707.576 237.935 706.753 242.219 706.257 244.108C705.312 247.706 704.633 251.879 703.336 262.042C702.907 265.399 702.211 269.52 701.789 271.199C701.367 272.878 700.461 278.201 699.775 283.028C698.197 294.139 697.69 297.235 696.212 304.777C695.553 308.135 694.611 314.488 694.118 318.896C693.624 323.303 692.878 327.939 692.461 329.198C692.043 330.457 691.408 333.72 691.05 336.448C690.325 341.968 688.536 352.919 687.311 359.342C686.147 365.449 683.473 382.574 682.772 388.405C682.44 391.167 681.971 393.748 681.729 394.14C681.324 394.795 680.519 399.695 678.855 411.617C678.504 414.136 677.846 417.894 677.393 419.969C675.795 427.293 677.172 428.025 692.556 428.025C707.151 428.025 706.746 428.317 707.915 416.959C709.908 397.594 712.004 384.07 713.243 382.578C713.99 381.678 717.113 381.473 730.073 381.473H745.986L747.062 383.572C747.653 384.726 748.54 389.448 749.032 394.065C749.523 398.682 750.25 404.117 750.646 406.142C751.042 408.169 751.376 411.088 751.387 412.629C751.413 416.172 753.838 425.459 755.056 426.677C755.672 427.294 760.134 427.697 768.583 427.901C785.186 428.302 784.321 429.065 782.475 415.647C781.709 410.073 780.776 404.825 780.404 403.986C779.585 402.145 777.678 391.656 776.171 380.71C775.565 376.303 774.568 369.95 773.956 366.592C773.344 363.234 772.305 357.396 771.647 353.619C770.99 349.841 770.132 345.377 769.741 343.698C768.757 339.473 767.059 327.128 767.294 325.898C767.399 325.343 767.151 324.484 766.742 323.99C766.333 323.497 765.638 320.689 765.199 317.751C763.262 304.779 761.943 296.954 761.278 294.475C760.883 293.006 760.02 288.027 759.359 283.41C758.698 278.793 757.518 271.753 756.738 267.765C755.957 263.778 754.92 257.253 754.434 253.265C753.947 249.278 753.081 243.955 752.509 241.437C751.937 238.918 751.24 235.141 750.961 233.042C750.039 226.114 751.4 226.554 730.926 226.567C717.909 226.575 712.292 226.848 710.92 227.539ZM427.963 228.219C427.24 228.943 427.032 251.173 427.032 327.798C427.032 424.546 427.06 426.46 428.508 427.235C429.345 427.683 435.15 428.025 441.913 428.025C448.677 428.025 454.481 427.683 455.319 427.235C456.759 426.464 456.795 424.968 456.795 365.039C456.795 331.239 457.09 303.633 457.452 303.633C457.813 303.633 458.651 305.436 459.316 307.639C460.89 312.861 463.449 320.415 465.587 326.145C466.526 328.664 468.041 333.128 468.952 336.066C469.863 339.004 470.901 342.095 471.257 342.935C472.088 344.894 475.147 354.095 477.727 362.395C478.836 365.962 480.031 369.568 480.384 370.408C482.283 374.928 482.741 376.335 482.741 377.643C482.741 378.435 483.556 381.08 484.55 383.521C485.545 385.963 486.902 389.677 487.566 391.776C488.231 393.874 490.507 400.719 492.626 406.986C494.745 413.253 496.478 418.779 496.478 419.267C496.478 419.755 497.278 421.665 498.254 423.513C500.438 427.642 501.587 427.919 516.799 427.98C524.988 428.014 527.786 427.776 528.439 426.989C529.069 426.231 529.247 399.45 529.105 326.827L528.911 227.7L515.657 227.491C506.528 227.347 502.074 227.555 501.348 228.157C500.467 228.888 500.294 239.296 500.294 291.58C500.294 341.276 500.097 354.063 499.34 353.813C498.815 353.641 498.284 352.668 498.159 351.651C498.035 350.635 497.645 348.944 497.294 347.895C496.943 346.846 496.232 344.442 495.715 342.553C494.626 338.575 493.534 335.183 492.646 333.014C492.303 332.174 490.778 327.366 489.259 322.33C487.738 317.293 486.126 312.142 485.674 310.883C485.222 309.623 483.898 305.425 482.733 301.554C481.568 297.682 479.92 292.702 479.072 290.488C478.224 288.274 477.096 284.917 476.564 283.028C476.033 281.139 475.33 279.231 475.001 278.787C474.673 278.343 473.907 276.111 473.301 273.827C472.694 271.542 471.512 267.784 470.675 265.476C469.839 263.167 468.632 259.046 467.993 256.318C467.355 253.59 464.995 246.035 462.748 239.529L458.663 227.7L443.779 227.494C432.846 227.342 428.648 227.535 427.963 228.219ZM560.734 228.234C560.031 228.937 559.819 252.001 559.819 327.399V425.649L561.497 426.824C562.957 427.847 566.539 427.945 589.16 427.581C617.98 427.116 624.099 426.402 632.308 422.548C642.677 417.68 649.58 410.165 652.915 400.115C653.879 397.208 654.965 394.228 655.328 393.493C656.967 390.171 657.475 374.481 657.481 326.909C657.488 274.102 657.132 266.114 654.373 257.185C651.956 249.361 650.427 246.573 645.317 240.674C640.453 235.058 631.35 230.412 621.251 228.39C614.114 226.961 562.142 226.827 560.734 228.234ZM789.942 229.722C789.471 231.072 789.104 237.375 789.104 244.103C789.104 258.319 789.247 258.607 796.283 258.607H800.672L800.13 261.079C799.831 262.437 798.8 265.442 797.838 267.756C795.863 272.507 793.396 279.759 791.527 286.304C790.413 290.202 790.399 290.81 791.401 291.444C793.069 292.499 801.582 292.343 803.017 291.232C804.088 290.403 806.684 286.148 809.186 281.12C809.604 280.281 810.236 279.079 810.591 278.449C812.883 274.382 817.616 263.893 818.167 261.66C821.201 249.366 821.989 233.13 819.752 229.036C818.83 227.352 818.545 227.319 804.796 227.319H790.78L789.942 229.722ZM166.801 250.929C163.341 251.99 158.852 255.595 156.512 259.191L154.209 262.732V328.017V393.302L155.909 396.354C159.034 401.967 160.558 403.132 167.879 405.507C173.617 407.368 179.642 405.418 184.203 400.225C188.638 395.175 188.551 396.612 188.551 328.053C188.551 258.868 188.68 260.866 183.876 255.55C180.027 251.289 172.378 249.219 166.801 250.929ZM592.061 253.717C591.308 254.064 591.107 269.751 591.107 328.417C591.107 387.136 591.307 402.749 592.061 403.017C592.586 403.204 596.911 403.235 601.673 403.087C609.018 402.858 610.954 402.522 614.437 400.874C616.695 399.806 619.231 398.009 620.072 396.88C620.912 395.751 622.07 394.313 622.646 393.683C625.769 390.265 625.808 389.521 626.042 329.796C626.298 264.423 626.39 265.631 620.698 259.659C616.245 254.987 613.005 253.923 602.173 253.573C597.136 253.41 592.586 253.475 592.061 253.717ZM726.986 274.321C726.453 278.9 725.866 284.363 725.681 286.462C725.497 288.561 725.05 290.965 724.688 291.804C724.148 293.056 722.845 303.586 720.487 325.764C720.331 327.233 719.839 330.495 719.395 333.014C718.41 338.593 717.225 346.889 716.642 352.283L716.21 356.289H728.783C735.698 356.289 741.512 356.032 741.702 355.717C742.216 354.867 739.224 327.921 738.419 326.145C738.038 325.306 737.328 320.498 736.841 315.461C736.355 310.425 735.294 302.526 734.483 297.909C732.193 284.863 730.812 275.278 730.786 272.238C730.773 270.71 730.131 268.681 729.359 267.728C727.967 266.01 727.948 266.063 726.986 274.321ZM425.887 479.476C423.789 480.074 421.109 480.932 419.933 481.382C417.484 482.319 411.769 486.726 411.769 487.677C411.769 488.027 411.101 488.981 410.283 489.799C408.514 491.568 407.22 496.026 406.507 502.812C405.879 508.779 407.91 519.639 410.247 522.814C411.084 523.951 411.769 525.174 411.769 525.532C411.769 525.89 412.371 526.853 413.105 527.673C413.839 528.494 416.033 531.049 417.979 533.35C419.926 535.652 425.709 541.656 430.83 546.693C435.952 551.73 441.092 557.224 442.253 558.903C447.193 566.049 446.963 576.117 441.756 580.688C439.589 582.592 438.546 582.942 435.054 582.942C432.78 582.942 430.119 582.577 429.141 582.132C426.493 580.925 423.28 575.315 422.786 571.035C421.857 562.991 422.595 563.588 414.329 564.195C410.325 564.489 406.565 564.915 405.975 565.141C405.291 565.404 404.901 566.702 404.901 568.717C404.901 573.62 409.326 587.521 410.887 587.521C411.23 587.521 411.932 588.294 412.446 589.238C414.852 593.657 425.508 598.165 433.616 598.194C438.305 598.21 447.344 595.967 449.251 594.313C450.17 593.516 451.339 592.863 451.846 592.863C453.805 592.863 459.575 585.522 461.601 580.454C465.089 571.726 464.212 561.967 459.082 552.417C457.054 548.642 453.172 544.194 442.843 533.81C435.377 526.305 428.434 518.74 427.414 516.999C426.393 515.259 425.162 511.441 424.679 508.515C423.877 503.677 423.94 502.87 425.367 499.618C426.684 496.615 427.401 495.913 429.846 495.235C438.425 492.852 443.933 496.962 445.019 506.556C445.31 509.133 445.806 511.401 446.122 511.595C446.697 511.952 457.9 510.786 461.269 510.019C463.028 509.618 463.059 509.469 462.539 503.922C461.702 494.993 456.411 485.617 450.386 482.388C443.65 478.778 432.846 477.494 425.887 479.476ZM666.658 478.887C656.62 480.902 650.85 485.127 646.271 493.818L644.146 497.852V537.535V577.219L646.242 581.695C651.512 592.945 660.205 598.205 673.526 598.205C679.904 598.205 687.12 596.544 689.725 594.475C697.456 588.336 699.26 585.725 701.418 577.554C702.551 573.263 702.707 568.396 702.644 539.198C702.601 518.994 702.248 503.964 701.753 501.231C700.678 495.301 696.94 488.113 693.319 485.015C688.08 480.529 674.279 477.357 666.658 478.887ZM275.518 481.635C275.318 482.16 275.243 508.174 275.351 539.443L275.549 596.297L295.009 596.193C314.387 596.09 314.486 596.081 318.395 594.095C320.555 592.997 322.591 592.1 322.92 592.1C324.174 592.1 328.724 586.334 330.106 582.996C334.294 572.881 334.805 560.501 331.456 550.295C329.785 545.203 325.411 539.449 321.917 537.744C319.354 536.494 318.926 535.127 320.901 534.5C321.756 534.229 323.849 532.668 325.552 531.032C330.067 526.693 331.639 521.516 331.639 510.985C331.639 499.8 330.36 495.072 325.872 489.667C319.628 482.145 314.09 480.681 291.885 480.681C279.786 480.681 275.794 480.914 275.518 481.635ZM361.102 481.889C360.302 483.973 360.572 592.59 361.383 594.721C362.112 596.639 362.279 596.679 369.625 596.679C374.439 596.679 377.451 596.351 378.038 595.763C378.734 595.068 378.954 581.645 378.954 540.016C378.954 492.359 378.802 484.89 377.79 482.933L376.626 480.681H369.095C362.933 480.681 361.481 480.9 361.102 481.889ZM481.678 481.889C481.423 482.553 481.215 485.803 481.215 489.112C481.215 496.624 481.34 496.707 492.612 496.707C500.094 496.707 501.072 496.859 501.192 498.043C501.266 498.777 501.352 520.783 501.383 546.945C501.437 593.116 501.482 594.543 502.919 595.595C503.961 596.357 506.623 596.679 511.881 596.679H519.361L519.557 546.884L519.754 497.089L528.911 496.707C533.948 496.498 538.499 496.048 539.023 495.708C540.301 494.881 540.333 482.869 539.061 481.597C538.382 480.918 530.905 480.681 510.143 480.681C485.313 480.681 482.089 480.818 481.678 481.889ZM561.091 481.19C560.455 481.826 560.41 593.818 561.045 595.472C561.426 596.465 562.908 596.679 569.413 596.679C576.447 596.679 577.404 596.516 578.107 595.203C578.602 594.277 578.897 585.02 578.897 570.401V547.075H582.661H586.425L589.601 557.186C591.348 562.748 593.283 568.843 593.9 570.732C594.518 572.621 596.012 577.6 597.221 581.798C599.546 589.868 601.027 594.155 602.033 595.725C602.781 596.892 619.005 597.081 619.715 595.931C620.172 595.194 615.344 578.563 613.869 575.789C613.451 575.003 612.264 571.111 611.232 567.14C610.2 563.169 609.04 559.347 608.653 558.648C607.854 557.202 604.844 546.048 604.844 544.536C604.844 543.988 606.217 542.768 607.896 541.824C609.575 540.881 610.949 539.838 610.949 539.506C610.949 539.175 611.811 537.973 612.865 536.836C616.383 533.04 617.827 526.879 617.938 515.206C618.007 507.931 617.669 503.243 616.837 499.895C615.551 494.724 610.869 487.079 608.28 485.923C607.439 485.548 605.721 484.635 604.462 483.894C599.967 481.25 595.328 480.681 578.25 480.681C569.092 480.681 561.37 480.91 561.091 481.19ZM668.816 495.802C667.693 496.09 665.719 497.661 664.428 499.293L662.079 502.259L662.156 538.213C662.198 557.987 662.455 574.912 662.728 575.823C663.724 579.15 667.163 582.047 670.757 582.586C675.718 583.33 679.052 581.969 681.651 578.14L683.829 574.929L684.062 540.206C684.212 517.866 684.014 504.52 683.507 502.78C682.278 498.571 679.047 495.959 674.608 495.591C672.544 495.419 669.937 495.515 668.816 495.802ZM293.334 512.161C293.187 522.366 293.384 528.585 293.864 528.939C295.062 529.818 304.263 529.534 307.206 528.526C311.325 527.114 313.591 522.375 313.643 515.065C313.693 507.868 312.285 501.521 310.129 499.227C308.029 496.991 304.283 495.954 298.295 495.949L293.568 495.944L293.334 512.161ZM578.857 496.517C578.589 500.274 578.992 531.348 579.314 531.87C579.918 532.847 587.432 532.754 591.543 531.719C593.571 531.207 595.653 530.02 596.7 528.776C599.082 525.944 600.602 517.276 599.815 510.997C599.489 508.384 599.301 505.809 599.4 505.274C599.77 503.253 596.094 498.105 593.509 497.026C590.818 495.901 578.93 495.489 578.857 496.517ZM293.299 545.25C293.103 546.044 292.979 554.42 293.022 563.864L293.101 581.034L298.737 581.261C305.938 581.55 310.124 579.776 313.003 575.215C314.856 572.28 314.992 571.449 314.992 563.046C314.992 554.672 314.843 553.754 312.913 550.21C310.449 545.68 308.737 544.899 299.864 544.257C294.202 543.847 293.622 543.935 293.299 545.25Z" fill="black"/>
<path d="M367.918 67.7388C387.984 48.661 418.579 43.0843 444.857 56.047C469.922 68.4114 483.993 94.158 482.698 120.401C485.242 90.5588 472.519 52.3087 477.799 0.899414C430.335 40.4319 390.474 45.1782 367.918 67.7388Z" fill="#6BAA7B"/>
<path fill-rule="evenodd" clip-rule="evenodd" d="M384.704 177.987C418.377 194.597 459.14 180.766 475.75 147.093C479.997 138.485 482.254 129.414 482.698 120.401C483.993 94.158 469.922 68.4114 444.857 56.047C418.579 43.0843 387.984 48.661 367.918 67.7388C362.271 73.1077 357.459 79.5457 353.811 86.9407C337.2 120.614 351.032 161.376 384.704 177.987ZM414.215 171.928C444.038 171.928 468.215 147.751 468.215 117.928C468.215 88.1042 444.038 63.9276 414.215 63.9276C384.391 63.9276 360.215 88.1042 360.215 117.928C360.215 147.751 384.391 171.928 414.215 171.928Z" fill="#6BAA7B"/>
<path d="M404.78 166.58C422.453 166.58 436.78 152.253 436.78 134.58C436.78 116.907 422.453 102.58 404.78 102.58C387.107 102.58 372.78 116.907 372.78 134.58C372.78 152.253 387.107 166.58 404.78 166.58Z" fill="#F6AC33"/>
</svg>
