<svg width="942" height="598" viewBox="0 0 942 598" fill="none" xmlns="http://www.w3.org/2000/svg">
<path fill-rule="evenodd" clip-rule="evenodd" d="M160.393 224.885C157.036 225.74 153.086 226.719 151.617 227.061C147.924 227.922 146.37 228.623 142.841 231.024C134.06 236.996 129.276 244.23 125.912 256.621L123.876 264.124L123.819 328.228C123.774 379.086 123.971 393.12 124.772 396.147C128.201 409.118 129.935 412.326 137.325 419.366C142.718 424.504 143.498 424.932 153.529 428.253C160.882 430.688 162.117 430.87 171.231 430.87C181.743 430.87 187.992 429.643 196.028 426.001C203.844 422.458 210.32 415.949 213.964 407.976C219.518 395.824 219.778 391.565 219.297 320.896C218.914 264.673 218.62 257.843 216.334 251.914C214.295 246.628 211.819 241.611 211.249 241.611C210.913 241.611 210.149 240.667 209.554 239.513C208.385 237.247 206.834 235.845 200.87 231.665C190.959 224.717 172.926 221.696 160.393 224.885ZM882.568 224.518C880.259 225.179 876.005 226.402 873.113 227.234C867.376 228.884 861.924 232.482 856.983 237.876C853.084 242.134 851.108 245.361 848.097 252.394C845.752 257.87 845.687 258.332 845.631 269.848C845.576 281.197 845.671 281.955 847.96 288.545C851.838 299.71 857.585 310.377 862.414 315.374C863.215 316.204 865.76 319.047 868.068 321.692C870.377 324.338 876.316 330.668 881.267 335.76C892.692 347.509 904.699 361.278 904.699 362.632C904.699 362.887 905.432 364.126 906.327 365.383C908.96 369.081 910.804 376.213 910.804 382.7C910.804 397.887 905.157 404.949 893.046 404.907C887.575 404.888 883.245 403.191 880.097 399.836C877.533 397.104 874.433 388.479 873.403 381.216C872.191 372.669 872.091 372.576 864.74 373.096C855.33 373.761 844.867 375.377 844.183 376.271C843.439 377.244 844.231 390.883 845.336 396.147C845.778 398.246 847.123 402.118 848.327 404.752C849.531 407.385 850.516 409.741 850.516 409.986C850.516 410.632 853.324 413.788 858.327 418.763C866.427 426.818 877.289 430.489 893.024 430.489C900.067 430.489 903.386 430.202 904.052 429.535C904.575 429.01 905.88 428.581 906.95 428.58C909.941 428.58 916.777 425.753 922.06 422.332C924.684 420.634 926.83 419.006 926.83 418.715C926.83 418.424 927.795 417.177 928.974 415.943C931.742 413.045 935.43 407.458 936.498 404.542C939.562 396.177 941.616 384.377 940.996 378.693C939.738 367.137 934.259 351.393 929.792 346.494C929.003 345.627 928.356 344.651 928.356 344.325C928.356 342.877 920.179 333.733 905.844 319.149C894.273 307.377 887.148 299.657 887.145 298.886C887.144 298.655 886.129 297.279 884.891 295.83C881.818 292.235 878.077 284.923 877.119 280.637C873.337 263.726 877.573 252.456 888.213 251.127C897.457 249.972 902.828 252.737 906.278 260.425C907.508 263.167 908.517 266.323 908.519 267.438C908.527 271.117 910.152 275.417 912.373 277.639C914.55 279.817 914.598 279.826 921.65 279.36C930.363 278.786 936.55 277.658 937.257 276.514C938.318 274.797 937.446 261.12 935.956 256.111C934.013 249.585 931.313 243.129 929.733 241.23C929.034 240.39 927.523 238.557 926.376 237.155C920.221 229.636 907.174 224.18 894.015 223.623C888.897 223.406 885.531 223.669 882.568 224.518ZM32.5605 225.926C25.0702 227.679 23.5493 228.286 19.3765 231.191C11.3047 236.812 4.87373 246.368 2.22182 256.683C1.01453 261.377 0.897003 267.654 0.897003 327.465C0.897003 400.529 0.836716 399.572 6.07873 409.63C11.3139 419.673 14.8144 423.318 22.706 426.945C30.6198 430.582 32.9939 431.028 42.8842 430.737C51.655 430.478 52.2747 430.348 58.0959 427.551C64.0164 424.708 68.3243 421.184 71.0685 416.943C72.955 414.026 74.2096 414.314 76.0549 418.088C79.1899 424.496 80.0133 425.563 82.6919 426.682C84.1869 427.306 87.2654 427.818 89.5335 427.818C93.2775 427.818 93.7262 427.635 94.4153 425.822C94.8976 424.554 95.0991 405.726 94.9686 374.119L94.7633 324.412L72.7246 324.209C57.1015 324.066 50.3813 324.26 49.6396 324.875C48.2049 326.067 48.1209 346.529 49.5472 347.452C50.0723 347.792 53.9353 348.241 58.1326 348.451L65.764 348.833L65.7311 369.819C65.6999 389.979 65.6327 390.927 64.0164 393.897C61.8323 397.91 58.0906 401.493 54.532 402.977C51.265 404.34 44.3411 404.534 41.2023 403.351C38.31 402.26 34.3241 398.347 32.3094 394.621C30.6625 391.575 30.6587 391.45 30.4374 330.136C30.2756 285.289 30.455 267.776 31.1029 265.269C32.6772 259.174 34.7644 255.612 38.0276 253.452C40.9398 251.525 41.5953 251.408 48.111 251.653C54.5038 251.892 55.3204 252.103 57.986 254.203C59.6199 255.491 61.7827 258.33 62.9258 260.69C64.8207 264.599 64.9878 265.786 65.3625 278.016C65.6495 287.393 66.0501 291.428 66.766 292.134C68.029 293.381 91.8542 293.126 93.3935 291.849C95.2525 290.306 94.0841 259.005 92.0236 255.148C91.6283 254.408 90.756 252.188 90.0852 250.212C87.5264 242.675 80.6986 234.473 74.2211 231.156C72.9276 230.493 71.6691 229.643 71.4257 229.267C71.1815 228.891 66.8888 227.567 61.8864 226.327C50.7324 223.561 43.1132 223.456 32.5605 225.926ZM240.905 227.323L238.234 228.285L238.354 233.449C238.419 236.288 238.805 239.03 239.211 239.539C239.617 240.049 240.173 242.184 240.447 244.282C241.577 252.949 243.348 262.719 244.111 264.506C244.559 265.555 245.207 268.989 245.551 272.137C246.608 281.811 247.421 286.976 248.045 287.986C248.374 288.517 248.942 291.608 249.308 294.853C250.082 301.716 251.984 313.151 253.081 317.544C253.5 319.223 254.579 325.919 255.478 332.425C257.27 345.382 257.953 349.748 259.181 356.082C259.629 358.391 260.491 363.37 261.097 367.148C261.703 370.926 263.068 378.824 264.131 384.7C265.195 390.576 266.069 396.414 266.072 397.674C266.077 398.933 266.579 401.508 267.189 403.397C267.798 405.286 268.826 410.952 269.472 415.989C271.185 429.328 269.967 428.663 292.202 428.404C306.934 428.233 309.9 428.012 310.393 427.055C310.717 426.425 311.379 422.476 311.864 418.278C312.348 414.081 313.235 408.243 313.834 405.305C314.433 402.367 315.598 394.984 316.422 388.898C317.69 379.539 319.783 367.28 323.392 348.07C323.786 345.971 324.425 341.335 324.813 337.767C326.068 326.2 326.954 320.462 327.713 318.989C328.121 318.194 328.71 315.655 329.022 313.347C329.595 309.089 330.284 304.902 331.654 297.321C332.072 295.012 332.934 289.002 333.571 283.966C334.208 278.929 335.101 273.091 335.555 270.992C336.216 267.941 339.008 251.953 342.086 233.598C342.366 231.934 341.982 230.711 340.68 229.118L338.889 226.928L326.937 226.829C317.232 226.748 314.771 226.945 313.839 227.876C313.087 228.627 312.263 232.569 311.447 239.323C310.762 244.989 309.929 251.857 309.595 254.585C309.262 257.313 308.637 261.262 308.206 263.361C307.776 265.46 307.029 271.298 306.546 276.334C306.063 281.371 305.185 288.411 304.593 291.979C304.002 295.546 302.803 303.96 301.928 310.676C301.054 317.391 300.042 323.573 299.68 324.412C299.318 325.252 298.82 328.342 298.573 331.28C298.153 336.273 297.7 340.308 295.893 355.129C295.496 358.381 294.467 365.679 293.605 371.345C292.744 377.012 292.038 382.764 292.037 384.128C292.036 386.035 291.708 386.608 290.619 386.608C289.415 386.608 289.125 385.773 288.691 381.075C288.178 375.525 287.498 370.871 285.539 359.517C284.959 356.159 284.267 351.008 284.001 348.07C283.212 339.376 281.502 326.418 281.044 325.677C280.81 325.299 280.282 322.285 279.869 318.978C279.457 315.67 278.607 309.531 277.98 305.334C276.943 298.385 276.147 292.711 273.698 274.808C273.239 271.45 272.543 267.158 272.152 265.269C271.423 261.748 268.378 235.87 268.378 233.199C268.378 232.383 267.376 230.593 266.152 229.223L263.926 226.73L253.751 226.545C247.044 226.424 242.665 226.689 240.905 227.323ZM369.262 226.893C368.28 227.08 367.185 228.067 366.782 229.128C366.341 230.286 366.06 269.114 366.06 328.632C366.06 425.104 366.077 426.247 367.57 427.046C368.512 427.55 374.035 427.775 382.261 427.645L395.441 427.436L395.635 327.638L395.828 227.839L393.868 227.094C391.967 226.371 372.81 226.214 369.262 226.893ZM710.999 227.332C709.35 228.163 708.966 229.12 708.164 234.381C707.655 237.728 706.832 242.012 706.336 243.901C705.391 247.499 704.712 251.672 703.415 261.835C702.986 265.192 702.29 269.313 701.868 270.992C701.446 272.671 700.54 277.994 699.854 282.821C698.276 293.932 697.769 297.028 696.291 304.57C695.632 307.928 694.69 314.281 694.197 318.689C693.703 323.096 692.957 327.732 692.54 328.991C692.122 330.25 691.487 333.513 691.129 336.241C690.404 341.761 688.615 352.712 687.39 359.135C686.226 365.242 683.552 382.367 682.851 388.198C682.519 390.96 682.05 393.541 681.808 393.933C681.403 394.588 680.598 399.488 678.934 411.41C678.583 413.929 677.925 417.687 677.472 419.762C675.874 427.086 677.251 427.818 692.635 427.818C707.23 427.818 706.825 428.11 707.994 416.752C709.987 397.387 712.083 383.863 713.322 382.371C714.069 381.471 717.192 381.266 730.152 381.266H746.065L747.141 383.365C747.732 384.519 748.619 389.241 749.111 393.858C749.602 398.475 750.329 403.91 750.725 405.935C751.121 407.962 751.455 410.881 751.466 412.422C751.492 415.965 753.917 425.252 755.135 426.47C755.751 427.087 760.213 427.49 768.662 427.694C785.265 428.095 784.4 428.858 782.554 415.44C781.788 409.866 780.855 404.618 780.483 403.779C779.664 401.938 777.757 391.449 776.25 380.503C775.644 376.096 774.647 369.743 774.035 366.385C773.423 363.027 772.384 357.189 771.726 353.412C771.069 349.634 770.211 345.17 769.82 343.491C768.836 339.266 767.138 326.921 767.373 325.691C767.478 325.136 767.23 324.277 766.821 323.783C766.412 323.29 765.717 320.482 765.278 317.544C763.341 304.572 762.022 296.747 761.357 294.268C760.962 292.799 760.099 287.82 759.438 283.203C758.777 278.586 757.597 271.546 756.817 267.558C756.036 263.571 754.999 257.046 754.513 253.058C754.026 249.071 753.16 243.748 752.588 241.23C752.016 238.711 751.319 234.934 751.04 232.835C750.118 225.907 751.479 226.347 731.005 226.36C717.988 226.368 712.371 226.641 710.999 227.332ZM428.042 228.012C427.319 228.736 427.111 250.966 427.111 327.591C427.111 424.339 427.139 426.253 428.587 427.028C429.424 427.476 435.229 427.818 441.992 427.818C448.756 427.818 454.56 427.476 455.398 427.028C456.838 426.257 456.874 424.761 456.874 364.832C456.874 331.032 457.169 303.426 457.531 303.426C457.892 303.426 458.73 305.229 459.395 307.432C460.969 312.654 463.528 320.208 465.666 325.938C466.605 328.457 468.12 332.921 469.031 335.859C469.942 338.797 470.98 341.888 471.336 342.728C472.167 344.687 475.226 353.888 477.806 362.188C478.915 365.755 480.11 369.361 480.463 370.201C482.362 374.721 482.82 376.128 482.82 377.436C482.82 378.228 483.635 380.873 484.629 383.314C485.624 385.756 486.981 389.47 487.645 391.569C488.31 393.667 490.586 400.512 492.705 406.779C494.824 413.046 496.557 418.572 496.557 419.06C496.557 419.548 497.357 421.458 498.333 423.306C500.517 427.435 501.666 427.712 516.878 427.773C525.067 427.807 527.865 427.569 528.518 426.782C529.148 426.024 529.326 399.243 529.184 326.62L528.99 227.493L515.736 227.284C506.607 227.14 502.153 227.348 501.427 227.95C500.546 228.681 500.373 239.089 500.373 291.373C500.373 341.069 500.176 353.856 499.419 353.606C498.894 353.434 498.363 352.461 498.238 351.444C498.114 350.428 497.724 348.737 497.373 347.688C497.022 346.639 496.311 344.235 495.794 342.346C494.705 338.368 493.613 334.976 492.725 332.807C492.382 331.967 490.857 327.159 489.338 322.123C487.817 317.086 486.205 311.935 485.753 310.676C485.301 309.416 483.977 305.218 482.812 301.347C481.647 297.475 479.999 292.495 479.151 290.281C478.303 288.067 477.175 284.71 476.643 282.821C476.112 280.932 475.409 279.024 475.08 278.58C474.752 278.136 473.986 275.904 473.38 273.62C472.773 271.335 471.591 267.577 470.754 265.269C469.918 262.96 468.711 258.839 468.072 256.111C467.434 253.383 465.074 245.828 462.827 239.322L458.742 227.493L443.858 227.287C432.925 227.135 428.727 227.328 428.042 228.012ZM560.813 228.027C560.11 228.73 559.898 251.794 559.898 327.192V425.442L561.576 426.617C563.036 427.64 566.618 427.738 589.239 427.374C618.059 426.909 624.178 426.195 632.387 422.341C642.756 417.473 649.659 409.958 652.994 399.908C653.958 397.001 655.044 394.021 655.407 393.286C657.046 389.964 657.554 374.274 657.56 326.702C657.567 273.895 657.211 265.907 654.452 256.978C652.035 249.154 650.506 246.366 645.396 240.467C640.532 234.851 631.429 230.205 621.33 228.183C614.193 226.754 562.221 226.62 560.813 228.027ZM790.021 229.515C789.55 230.865 789.183 237.168 789.183 243.896C789.183 258.112 789.326 258.4 796.362 258.4H800.751L800.209 260.872C799.91 262.23 798.879 265.235 797.917 267.549C795.942 272.3 793.475 279.552 791.606 286.097C790.492 289.995 790.478 290.603 791.48 291.237C793.148 292.292 801.661 292.136 803.096 291.025C804.167 290.196 806.763 285.941 809.265 280.913C809.683 280.074 810.315 278.872 810.67 278.242C812.962 274.175 817.695 263.686 818.246 261.453C821.28 249.159 822.068 232.923 819.831 228.829C818.909 227.145 818.624 227.112 804.875 227.112H790.859L790.021 229.515ZM166.88 250.722C163.42 251.783 158.931 255.388 156.591 258.984L154.288 262.525V327.81V393.095L155.988 396.147C159.113 401.76 160.637 402.925 167.958 405.3C173.696 407.161 179.721 405.211 184.282 400.018C188.717 394.968 188.63 396.405 188.63 327.846C188.63 258.661 188.759 260.659 183.955 255.343C180.106 251.082 172.457 249.012 166.88 250.722ZM592.14 253.51C591.387 253.857 591.186 269.544 591.186 328.21C591.186 386.929 591.386 402.542 592.14 402.81C592.665 402.997 596.99 403.028 601.752 402.88C609.097 402.651 611.033 402.315 614.516 400.667C616.774 399.599 619.31 397.802 620.151 396.673C620.991 395.544 622.149 394.106 622.725 393.476C625.848 390.058 625.887 389.314 626.121 329.589C626.377 264.216 626.469 265.424 620.777 259.452C616.324 254.78 613.084 253.716 602.252 253.366C597.215 253.203 592.665 253.268 592.14 253.51ZM727.065 274.114C726.532 278.693 725.945 284.156 725.76 286.255C725.576 288.354 725.129 290.758 724.767 291.597C724.227 292.849 722.924 303.379 720.566 325.557C720.41 327.026 719.918 330.288 719.474 332.807C718.489 338.386 717.304 346.682 716.721 352.076L716.289 356.082H728.862C735.777 356.082 741.591 355.825 741.781 355.51C742.295 354.66 739.303 327.714 738.498 325.938C738.117 325.099 737.407 320.291 736.92 315.254C736.434 310.218 735.373 302.319 734.562 297.702C732.272 284.656 730.891 275.071 730.865 272.031C730.852 270.503 730.21 268.474 729.438 267.521C728.046 265.803 728.027 265.856 727.065 274.114ZM425.966 479.269C423.868 479.867 421.188 480.725 420.012 481.175C417.563 482.112 411.848 486.519 411.848 487.47C411.848 487.82 411.18 488.774 410.362 489.592C408.593 491.361 407.299 495.819 406.586 502.605C405.958 508.572 407.989 519.432 410.326 522.607C411.163 523.744 411.848 524.967 411.848 525.325C411.848 525.683 412.45 526.646 413.184 527.466C413.918 528.287 416.112 530.842 418.058 533.143C420.005 535.445 425.788 541.449 430.909 546.486C436.031 551.523 441.171 557.017 442.332 558.696C447.272 565.842 447.042 575.91 441.835 580.481C439.668 582.385 438.625 582.735 435.133 582.735C432.859 582.735 430.198 582.37 429.22 581.925C426.572 580.718 423.359 575.108 422.865 570.828C421.936 562.784 422.674 563.381 414.408 563.988C410.404 564.282 406.644 564.708 406.054 564.934C405.37 565.197 404.98 566.495 404.98 568.51C404.98 573.413 409.405 587.314 410.966 587.314C411.309 587.314 412.011 588.087 412.525 589.031C414.931 593.45 425.587 597.958 433.695 597.987C438.384 598.003 447.423 595.76 449.33 594.106C450.249 593.309 451.418 592.656 451.925 592.656C453.884 592.656 459.654 585.315 461.68 580.247C465.168 571.519 464.291 561.76 459.161 552.21C457.133 548.435 453.251 543.987 442.922 533.603C435.456 526.098 428.513 518.533 427.493 516.792C426.472 515.052 425.241 511.234 424.758 508.308C423.956 503.47 424.019 502.663 425.446 499.411C426.763 496.408 427.48 495.706 429.925 495.028C438.504 492.645 444.012 496.755 445.098 506.349C445.389 508.926 445.885 511.194 446.201 511.388C446.776 511.745 457.979 510.579 461.348 509.812C463.107 509.411 463.138 509.262 462.618 503.715C461.781 494.786 456.49 485.41 450.465 482.181C443.729 478.571 432.925 477.287 425.966 479.269ZM666.737 478.68C656.699 480.695 650.929 484.92 646.35 493.611L644.225 497.645V537.328V577.012L646.321 581.488C651.591 592.738 660.284 597.998 673.605 597.998C679.983 597.998 687.199 596.337 689.804 594.268C697.535 588.129 699.339 585.518 701.497 577.347C702.63 573.056 702.786 568.189 702.723 538.991C702.68 518.787 702.327 503.757 701.832 501.024C700.757 495.094 697.019 487.906 693.398 484.808C688.159 480.322 674.358 477.15 666.737 478.68ZM275.597 481.428C275.397 481.953 275.322 507.967 275.43 539.236L275.628 596.09L295.088 595.986C314.466 595.883 314.565 595.874 318.474 593.888C320.634 592.79 322.67 591.893 322.999 591.893C324.253 591.893 328.803 586.127 330.185 582.789C334.373 572.674 334.884 560.294 331.535 550.088C329.864 544.996 325.49 539.242 321.996 537.537C319.433 536.287 319.005 534.92 320.98 534.293C321.835 534.022 323.928 532.461 325.631 530.825C330.146 526.486 331.718 521.309 331.718 510.778C331.718 499.593 330.439 494.865 325.951 489.46C319.707 481.938 314.169 480.474 291.964 480.474C279.865 480.474 275.873 480.707 275.597 481.428ZM361.181 481.682C360.381 483.766 360.651 592.383 361.462 594.514C362.191 596.432 362.358 596.472 369.704 596.472C374.518 596.472 377.53 596.144 378.117 595.556C378.813 594.861 379.033 581.438 379.033 539.809C379.033 492.152 378.881 484.683 377.869 482.726L376.705 480.474H369.174C363.012 480.474 361.56 480.693 361.181 481.682ZM481.757 481.682C481.502 482.346 481.294 485.596 481.294 488.905C481.294 496.417 481.419 496.5 492.691 496.5C500.173 496.5 501.151 496.652 501.271 497.836C501.345 498.57 501.431 520.576 501.462 546.738C501.516 592.909 501.561 594.336 502.998 595.388C504.04 596.15 506.702 596.472 511.96 596.472H519.44L519.636 546.677L519.833 496.882L528.99 496.5C534.027 496.291 538.578 495.841 539.102 495.501C540.38 494.674 540.412 482.662 539.14 481.39C538.461 480.711 530.984 480.474 510.222 480.474C485.392 480.474 482.168 480.611 481.757 481.682ZM561.17 480.983C560.534 481.619 560.489 593.611 561.124 595.265C561.505 596.258 562.987 596.472 569.492 596.472C576.526 596.472 577.483 596.309 578.186 594.996C578.681 594.07 578.976 584.813 578.976 570.194V546.868H582.74H586.504L589.68 556.979C591.427 562.541 593.362 568.636 593.979 570.525C594.597 572.414 596.091 577.393 597.3 581.591C599.625 589.661 601.106 593.948 602.112 595.518C602.86 596.685 619.084 596.874 619.794 595.724C620.251 594.987 615.423 578.356 613.948 575.582C613.53 574.796 612.343 570.904 611.311 566.933C610.279 562.962 609.119 559.14 608.732 558.441C607.933 556.995 604.923 545.841 604.923 544.329C604.923 543.781 606.296 542.561 607.975 541.617C609.654 540.674 611.028 539.631 611.028 539.299C611.028 538.968 611.89 537.766 612.944 536.629C616.462 532.833 617.906 526.672 618.017 514.999C618.086 507.724 617.748 503.036 616.916 499.688C615.63 494.517 610.948 486.872 608.359 485.716C607.518 485.341 605.8 484.428 604.541 483.687C600.046 481.043 595.407 480.474 578.329 480.474C569.171 480.474 561.449 480.703 561.17 480.983ZM668.895 495.595C667.772 495.883 665.798 497.454 664.507 499.086L662.158 502.052L662.235 538.006C662.277 557.78 662.534 574.705 662.807 575.616C663.803 578.943 667.242 581.84 670.836 582.379C675.797 583.123 679.131 581.762 681.73 577.933L683.908 574.722L684.141 539.999C684.291 517.659 684.093 504.313 683.586 502.573C682.357 498.364 679.126 495.752 674.687 495.384C672.623 495.212 670.016 495.308 668.895 495.595ZM293.413 511.954C293.266 522.159 293.463 528.378 293.943 528.732C295.141 529.611 304.342 529.327 307.285 528.319C311.404 526.907 313.67 522.168 313.722 514.858C313.772 507.661 312.364 501.314 310.208 499.02C308.108 496.784 304.362 495.747 298.374 495.742L293.647 495.737L293.413 511.954ZM578.936 496.31C578.668 500.067 579.071 531.141 579.393 531.663C579.997 532.64 587.511 532.547 591.622 531.512C593.65 531 595.732 529.813 596.779 528.569C599.161 525.737 600.681 517.069 599.894 510.79C599.568 508.177 599.38 505.602 599.479 505.067C599.849 503.046 596.173 497.898 593.588 496.819C590.897 495.694 579.009 495.282 578.936 496.31ZM293.378 545.043C293.182 545.837 293.058 554.213 293.101 563.657L293.18 580.827L298.816 581.054C306.017 581.343 310.203 579.569 313.082 575.008C314.935 572.073 315.071 571.242 315.071 562.839C315.071 554.465 314.922 553.547 312.992 550.003C310.528 545.473 308.816 544.692 299.943 544.05C294.281 543.64 293.701 543.728 293.378 545.043Z" fill="#D0531B"/>
<path d="M367.996 67.5319C388.062 48.4541 418.657 42.8774 444.935 55.8401C470 68.2045 484.071 93.9511 482.776 120.194C485.32 90.3519 472.597 52.1018 477.877 0.692505C430.413 40.225 390.552 44.9713 367.996 67.5319Z" fill="#D0531B"/>
<path fill-rule="evenodd" clip-rule="evenodd" d="M384.782 177.78C418.455 194.39 459.218 180.559 475.828 146.886C480.075 138.278 482.332 129.207 482.776 120.194C484.071 93.9511 470 68.2045 444.935 55.8401C418.657 42.8774 388.062 48.4541 367.996 67.5319C362.349 72.9008 357.537 79.3388 353.889 86.7338C337.278 120.407 351.11 161.169 384.782 177.78ZM414.293 171.721C444.116 171.721 468.293 147.544 468.293 117.721C468.293 87.8973 444.116 63.7207 414.293 63.7207C384.469 63.7207 360.293 87.8973 360.293 117.721C360.293 147.544 384.469 171.721 414.293 171.721Z" fill="#D0531B"/>
<circle cx="404.858" cy="134.373" r="32" fill="#D0531B"/>
</svg>
