<svg width="941" height="618" viewBox="0 0 941 618" fill="none" xmlns="http://www.w3.org/2000/svg">
<path fill-rule="evenodd" clip-rule="evenodd" d="M159.58 225.071C156.223 225.926 152.273 226.905 150.804 227.248C147.111 228.109 145.557 228.81 142.028 231.21C133.247 237.182 128.463 244.417 125.099 256.807L123.063 264.31L123.006 328.414C122.961 379.272 123.158 393.306 123.959 396.334C127.388 409.305 129.122 412.512 136.512 419.552C141.905 424.691 142.685 425.118 152.716 428.439C160.069 430.874 161.304 431.057 170.418 431.057C180.93 431.057 187.179 429.83 195.215 426.187C203.031 422.645 209.507 416.136 213.151 408.162C218.705 396.01 218.965 391.752 218.484 321.083C218.101 264.859 217.807 258.029 215.521 252.1C213.482 246.814 211.006 241.798 210.436 241.798C210.1 241.798 209.336 240.854 208.741 239.699C207.572 237.433 206.021 236.031 200.057 231.852C190.146 224.903 172.113 221.883 159.58 225.071ZM881.755 224.704C879.446 225.366 875.192 226.588 872.3 227.42C866.563 229.071 861.111 232.668 856.17 238.062C852.271 242.321 850.295 245.548 847.284 252.58C844.939 258.057 844.874 258.518 844.818 270.034C844.763 281.383 844.858 282.141 847.147 288.731C851.025 299.896 856.772 310.564 861.601 315.561C862.402 316.39 864.947 319.234 867.255 321.879C869.564 324.525 875.503 330.855 880.454 335.946C891.879 347.695 903.886 361.464 903.886 362.818C903.886 363.074 904.619 364.312 905.514 365.569C908.147 369.267 909.991 376.4 909.991 382.886C909.991 398.074 904.344 405.136 892.233 405.093C886.762 405.074 882.432 403.378 879.284 400.022C876.72 397.291 873.62 388.666 872.59 381.402C871.378 372.856 871.278 372.763 863.927 373.282C854.517 373.947 844.054 375.563 843.37 376.458C842.626 377.431 843.418 391.07 844.523 396.334C844.965 398.432 846.31 402.305 847.514 404.938C848.718 407.572 849.703 409.928 849.703 410.173C849.703 410.818 852.511 413.975 857.514 418.949C865.614 427.004 876.476 430.675 892.211 430.675C899.254 430.675 902.573 430.388 903.239 429.721C903.762 429.197 905.067 428.767 906.137 428.766C909.128 428.766 915.964 425.94 921.247 422.519C923.871 420.82 926.017 419.192 926.017 418.901C926.017 418.611 926.982 417.364 928.161 416.13C930.929 413.231 934.617 407.644 935.685 404.728C938.749 396.364 940.803 384.564 940.183 378.879C938.925 367.323 933.446 351.579 928.979 346.681C928.19 345.814 927.543 344.838 927.543 344.511C927.543 343.064 919.366 333.92 905.031 319.335C893.46 307.564 886.335 299.843 886.332 299.072C886.331 298.841 885.316 297.466 884.078 296.017C881.005 292.421 877.264 285.109 876.306 280.823C872.524 263.912 876.76 252.643 887.401 251.313C896.644 250.159 902.015 252.924 905.465 260.611C906.695 263.353 907.704 266.51 907.706 267.625C907.714 271.304 909.339 275.603 911.56 277.826C913.737 280.003 913.785 280.012 920.837 279.547C929.55 278.973 935.737 277.845 936.444 276.701C937.505 274.984 936.633 261.306 935.143 256.297C933.2 249.772 930.5 243.315 928.92 241.416C928.221 240.577 926.71 238.743 925.563 237.341C919.408 229.823 906.361 224.367 893.202 223.809C888.083 223.592 884.718 223.856 881.755 224.704ZM31.7475 226.112C24.2573 227.865 22.7363 228.473 18.5635 231.378C10.4917 236.998 4.06074 246.554 1.40883 256.87C0.201539 261.564 0.0840149 267.841 0.0840149 327.651C0.0840149 400.716 0.0237274 399.759 5.26574 409.816C10.5009 419.859 14.0014 423.505 21.893 427.132C29.8068 430.768 32.1809 431.215 42.0712 430.923C50.842 430.664 51.4617 430.535 57.2829 427.738C63.2034 424.894 67.5113 421.371 70.2556 417.129C72.142 414.213 73.3966 414.5 75.2419 418.274C78.3769 424.682 79.2003 425.749 81.879 426.869C83.374 427.493 86.4525 428.004 88.7205 428.004C92.4645 428.004 92.9132 427.821 93.6023 426.008C94.0846 424.74 94.2861 405.913 94.1556 374.306L93.9503 324.599L71.9116 324.396C56.2886 324.252 49.5683 324.446 48.8266 325.062C47.3919 326.253 47.3079 346.715 48.7342 347.639C49.2593 347.978 53.1223 348.428 57.3196 348.637L64.951 349.019L64.9182 370.005C64.8869 390.165 64.8197 391.114 63.2034 394.083C61.0193 398.097 57.2776 401.68 53.7191 403.163C50.4521 404.526 43.5281 404.72 40.3893 403.537C37.497 402.447 33.5111 398.533 31.4964 394.807C29.8496 391.761 29.8457 391.637 29.6244 330.322C29.4626 285.475 29.642 267.962 30.2899 265.455C31.8642 259.36 33.9514 255.798 37.2146 253.639C40.1268 251.711 40.7823 251.594 47.298 251.839C53.6908 252.079 54.5074 252.289 57.173 254.39C58.8069 255.677 60.9697 258.517 62.1129 260.876C64.0077 264.786 64.1749 265.973 64.5496 278.203C64.8365 287.579 65.2371 291.614 65.953 292.321C67.216 293.568 91.0412 293.313 92.5805 292.035C94.4395 290.492 93.2711 259.191 91.2106 255.334C90.8153 254.595 89.9431 252.374 89.2723 250.398C86.7134 242.862 79.8856 234.659 73.4081 231.342C72.1146 230.68 70.8561 229.829 70.6127 229.453C70.3685 229.077 66.0758 227.754 61.0735 226.514C49.9194 223.747 42.3002 223.643 31.7475 226.112ZM240.092 227.51L237.421 228.471L237.541 233.635C237.606 236.475 237.992 239.216 238.398 239.726C238.804 240.236 239.36 242.37 239.634 244.469C240.764 253.136 242.535 262.906 243.298 264.692C243.746 265.741 244.394 269.175 244.738 272.323C245.795 281.997 246.608 287.163 247.232 288.172C247.561 288.703 248.129 291.794 248.495 295.04C249.269 301.903 251.171 313.338 252.268 317.73C252.687 319.409 253.766 326.106 254.665 332.612C256.457 345.569 257.14 349.934 258.368 356.269C258.816 358.577 259.678 363.557 260.284 367.334C260.89 371.112 262.255 379.01 263.318 384.887C264.382 390.763 265.256 396.601 265.259 397.86C265.264 399.119 265.766 401.695 266.376 403.584C266.985 405.472 268.013 411.139 268.659 416.175C270.372 429.514 269.154 428.849 291.389 428.59C306.121 428.419 309.087 428.199 309.58 427.241C309.904 426.611 310.566 422.662 311.051 418.465C311.535 414.268 312.422 408.43 313.021 405.491C313.62 402.553 314.785 395.17 315.609 389.084C316.877 379.726 318.97 367.466 322.579 348.256C322.973 346.157 323.612 341.521 324 337.954C325.255 326.387 326.141 320.649 326.9 319.175C327.308 318.38 327.897 315.842 328.209 313.533C328.782 309.275 329.471 305.089 330.841 297.507C331.259 295.199 332.121 289.189 332.758 284.152C333.395 279.115 334.288 273.277 334.742 271.179C335.403 268.128 338.195 252.14 341.273 233.785C341.553 232.12 341.169 230.898 339.867 229.304L338.076 227.114L326.124 227.015C316.419 226.935 313.958 227.132 313.026 228.063C312.274 228.814 311.45 232.755 310.634 239.51C309.949 245.175 309.116 252.043 308.782 254.771C308.449 257.499 307.824 261.449 307.393 263.547C306.963 265.646 306.216 271.484 305.733 276.521C305.25 281.557 304.372 288.597 303.78 292.165C303.189 295.733 301.99 304.146 301.116 310.862C300.241 317.578 299.229 323.759 298.867 324.599C298.505 325.438 298.007 328.529 297.76 331.467C297.34 336.459 296.887 340.495 295.08 355.315C294.683 358.567 293.654 365.865 292.792 371.532C291.931 377.198 291.225 382.951 291.224 384.314C291.223 386.221 290.895 386.795 289.806 386.795C288.602 386.795 288.312 385.96 287.878 381.262C287.365 375.711 286.685 371.058 284.726 359.703C284.146 356.345 283.454 351.194 283.188 348.256C282.399 339.562 280.689 326.604 280.231 325.864C279.997 325.485 279.469 322.471 279.056 319.164C278.644 315.857 277.794 309.717 277.167 305.52C276.13 298.572 275.334 292.898 272.885 274.994C272.426 271.637 271.73 267.344 271.339 265.455C270.611 261.935 267.565 236.056 267.565 233.386C267.565 232.569 266.563 230.78 265.339 229.409L263.113 226.917L252.938 226.732C246.231 226.611 241.852 226.875 240.092 227.51ZM368.449 227.079C367.467 227.267 366.372 228.254 365.969 229.314C365.528 230.472 365.247 269.301 365.247 328.819C365.247 425.29 365.264 426.434 366.757 427.233C367.699 427.736 373.222 427.961 381.448 427.832L394.628 427.623L394.822 327.824L395.015 228.025L393.055 227.281C391.154 226.558 371.997 226.401 368.449 227.079ZM710.186 227.519C708.537 228.35 708.153 229.307 707.351 234.567C706.842 237.914 706.019 242.198 705.523 244.087C704.578 247.685 703.899 251.858 702.602 262.021C702.173 265.379 701.477 269.5 701.055 271.179C700.633 272.858 699.727 278.181 699.042 283.007C697.463 294.119 696.956 297.215 695.478 304.757C694.819 308.115 693.877 314.468 693.384 318.875C692.89 323.282 692.144 327.918 691.727 329.177C691.309 330.437 690.674 333.699 690.316 336.427C689.591 341.947 687.802 352.899 686.577 359.321C685.413 365.429 682.739 382.553 682.038 388.384C681.706 391.147 681.237 393.728 680.995 394.119C680.59 394.774 679.785 399.674 678.121 411.597C677.77 414.115 677.112 417.873 676.659 419.948C675.061 427.272 676.438 428.004 691.822 428.004C706.417 428.004 706.012 428.296 707.181 416.939C709.174 397.574 711.27 384.05 712.509 382.558C713.256 381.658 716.379 381.453 729.339 381.453H745.252L746.328 383.551C746.919 384.705 747.806 389.427 748.298 394.044C748.789 398.661 749.516 404.096 749.912 406.122C750.308 408.148 750.642 411.067 750.653 412.609C750.679 416.151 753.104 425.438 754.322 426.656C754.939 427.273 759.4 427.677 767.849 427.88C784.452 428.281 783.587 429.044 781.742 415.626C780.975 410.052 780.042 404.805 779.67 403.965C778.851 402.124 776.944 391.636 775.437 380.689C774.831 376.282 773.834 369.929 773.222 366.571C772.61 363.213 771.571 357.375 770.913 353.598C770.256 349.82 769.398 345.356 769.007 343.677C768.023 339.452 766.325 327.107 766.56 325.878C766.665 325.322 766.417 324.463 766.008 323.97C765.599 323.476 764.904 320.668 764.466 317.73C762.528 304.758 761.209 296.933 760.544 294.455C760.149 292.985 759.286 288.006 758.625 283.389C757.964 278.772 756.784 271.732 756.004 267.745C755.223 263.757 754.186 257.232 753.7 253.245C753.213 249.257 752.347 243.935 751.775 241.416C751.203 238.898 750.506 235.12 750.227 233.022C749.305 226.094 750.666 226.533 730.192 226.546C717.175 226.554 711.559 226.827 710.186 227.519ZM427.229 228.199C426.506 228.922 426.298 251.152 426.298 327.777C426.298 424.526 426.326 426.44 427.774 427.214C428.611 427.662 434.416 428.004 441.179 428.004C447.943 428.004 453.747 427.662 454.585 427.214C456.025 426.443 456.061 424.948 456.061 365.018C456.061 331.218 456.356 303.612 456.718 303.612C457.079 303.612 457.917 305.415 458.582 307.619C460.156 312.84 462.715 320.394 464.853 326.125C465.792 328.643 467.307 333.108 468.218 336.046C469.129 338.984 470.167 342.074 470.523 342.914C471.354 344.873 474.413 354.075 476.993 362.374C478.102 365.942 479.297 369.548 479.65 370.387C481.549 374.907 482.007 376.314 482.007 377.622C482.007 378.414 482.822 381.06 483.816 383.501C484.811 385.942 486.168 389.656 486.832 391.755C487.497 393.854 489.773 400.698 491.892 406.965C494.011 413.233 495.744 418.759 495.744 419.246C495.744 419.734 496.544 421.645 497.521 423.492C499.704 427.621 500.853 427.898 516.065 427.96C524.254 427.993 527.052 427.755 527.705 426.969C528.335 426.21 528.513 399.429 528.371 326.806L528.177 227.68L514.923 227.471C505.794 227.326 501.34 227.534 500.614 228.136C499.733 228.868 499.56 239.276 499.56 291.559C499.56 341.256 499.363 354.042 498.606 353.793C498.081 353.62 497.55 352.647 497.425 351.631C497.301 350.614 496.911 348.924 496.56 347.874C496.209 346.825 495.498 344.421 494.981 342.532C493.892 338.554 492.8 335.162 491.912 332.993C491.569 332.154 490.044 327.346 488.525 322.309C487.004 317.272 485.392 312.121 484.94 310.862C484.488 309.603 483.164 305.405 481.999 301.533C480.834 297.661 479.186 292.682 478.338 290.468C477.49 288.253 476.362 284.896 475.83 283.007C475.299 281.119 474.596 279.21 474.267 278.767C473.939 278.322 473.173 276.09 472.567 273.806C471.96 271.521 470.779 267.764 469.941 265.455C469.105 263.147 467.898 259.026 467.259 256.297C466.621 253.569 464.261 246.014 462.014 239.508L457.929 227.68L443.045 227.474C432.112 227.322 427.914 227.514 427.229 228.199ZM560 228.214C559.297 228.917 559.085 251.98 559.085 327.379V425.628L560.763 426.804C562.223 427.826 565.805 427.925 588.427 427.56C617.246 427.095 623.365 426.382 631.574 422.528C641.943 417.659 648.846 410.144 652.181 400.095C653.145 397.187 654.231 394.207 654.594 393.473C656.233 390.151 656.741 374.461 656.747 326.888C656.754 274.082 656.398 266.093 653.639 257.164C651.222 249.341 649.693 246.552 644.583 240.653C639.719 235.037 630.616 230.391 620.517 228.37C613.38 226.94 561.408 226.807 560 228.214ZM789.208 229.701C788.737 231.051 788.37 237.354 788.37 244.083C788.37 258.298 788.513 258.587 795.549 258.587H799.938L799.396 261.058C799.097 262.416 798.066 265.422 797.104 267.735C795.129 272.487 792.662 279.739 790.793 286.284C789.68 290.182 789.665 290.789 790.667 291.423C792.335 292.478 800.848 292.322 802.284 291.211C803.354 290.382 805.95 286.128 808.452 281.1C808.87 280.26 809.502 279.058 809.857 278.429C812.149 274.362 816.882 263.872 817.433 261.639C820.467 249.345 821.255 233.109 819.018 229.015C818.097 227.331 817.811 227.298 804.062 227.298H790.046L789.208 229.701ZM166.067 250.908C162.607 251.97 158.118 255.574 155.778 259.171L153.475 262.712V327.997V393.281L155.175 396.334C158.3 401.946 159.824 403.111 167.145 405.486C172.883 407.347 178.908 405.398 183.469 400.204C187.904 395.154 187.817 396.592 187.817 328.033C187.817 258.847 187.946 260.846 183.142 255.53C179.293 251.268 171.644 249.199 166.067 250.908ZM591.327 253.697C590.574 254.043 590.373 269.73 590.373 328.396C590.373 387.115 590.573 402.728 591.327 402.997C591.852 403.183 596.177 403.214 600.939 403.066C608.284 402.837 610.22 402.501 613.703 400.854C615.961 399.785 618.497 397.988 619.338 396.86C620.178 395.731 621.336 394.292 621.912 393.663C625.035 390.244 625.074 389.501 625.308 329.775C625.564 264.402 625.656 265.61 619.964 259.638C615.511 254.967 612.271 253.902 601.439 253.552C596.402 253.39 591.852 253.455 591.327 253.697ZM726.252 274.301C725.719 278.88 725.132 284.343 724.947 286.442C724.763 288.54 724.316 290.944 723.954 291.784C723.414 293.036 722.111 303.566 719.753 325.743C719.597 327.212 719.105 330.475 718.661 332.993C717.676 338.572 716.491 346.869 715.908 352.262L715.476 356.269H728.049C734.964 356.269 740.778 356.011 740.968 355.697C741.482 354.846 738.49 327.9 737.685 326.125C737.304 325.285 736.594 320.478 736.107 315.441C735.621 310.404 734.56 302.506 733.749 297.889C731.459 284.843 730.078 275.257 730.052 272.217C730.039 270.69 729.397 268.66 728.625 267.707C727.233 265.989 727.214 266.043 726.252 274.301Z" fill="black"/>
<path d="M367.183 67.7183C387.249 48.6405 417.844 43.0638 444.122 56.0265C469.187 68.3909 483.258 94.1375 481.963 120.381C484.507 90.5383 471.784 52.2882 477.064 0.878906C429.6 40.4114 389.739 45.1577 367.183 67.7183Z" fill="#6BAA7B"/>
<path fill-rule="evenodd" clip-rule="evenodd" d="M383.969 177.966C417.642 194.577 458.405 180.745 475.016 147.073C479.262 138.465 481.519 129.394 481.963 120.381C483.258 94.1375 469.187 68.3909 444.122 56.0265C417.844 43.0638 387.249 48.6405 367.183 67.7183C361.536 73.0872 356.724 79.5252 353.076 86.9202C336.465 120.593 350.297 161.356 383.969 177.966ZM413.48 171.907C443.303 171.907 467.48 147.73 467.48 117.907C467.48 88.0837 443.303 63.9071 413.48 63.9071C383.656 63.9071 359.48 88.0837 359.48 117.907C359.48 147.73 383.656 171.907 413.48 171.907Z" fill="#6BAA7B"/>
<path d="M467.479 117.907C467.479 147.731 443.303 171.907 413.479 171.907C383.656 171.907 359.479 147.731 359.479 117.907C359.479 88.0839 383.656 63.9072 413.479 63.9072C443.303 63.9072 467.479 88.0839 467.479 117.907Z" fill="#F85646"/>
<circle cx="404.045" cy="134.56" r="32" fill="#F6AC33"/>
<path fill-rule="evenodd" clip-rule="evenodd" d="M113.507 481.235C109.331 483.184 99.9605 493.26 90.6838 505.778C79.5343 520.823 70.3494 536.49 65.4084 548.89C63.4509 553.803 62.0956 558.475 61.4004 562.707C61.0056 565.11 60.9537 570.075 61.3058 571.741C62.0078 575.062 63.2268 577.549 65.1563 579.596C68.1684 582.793 71.4304 584.097 76.4374 584.105C83.3299 584.117 91.6546 580.731 102.767 573.395C107.524 570.254 115.01 564.603 120.736 559.831L121.848 558.904L121.949 560.512C122.076 562.552 122.507 563.812 123.44 564.87C125.301 566.98 128.049 567.341 131.16 565.882C133.599 564.74 138.983 560.138 141.797 556.791C142.294 556.2 142.7 555.742 142.7 555.773C142.7 555.804 142.575 556.481 142.422 557.279C141.672 561.193 142.473 564.45 144.501 565.734C147.889 567.88 153.019 566.104 163.181 559.267L165.961 557.397L166.087 558.926C166.355 562.199 167.869 564.481 170.626 565.77C172.924 566.843 175.91 566.688 180.233 565.272C185.438 563.566 192.483 559.84 199.173 555.254L200.876 554.087L201.444 554.734C203.42 556.98 204.349 561.639 203.606 565.576C203.156 567.953 202.864 568.612 201.701 569.865C197.491 574.401 196.766 576.823 199.098 578.562C199.766 579.059 201.243 579.026 202.104 578.495C203.468 577.654 205.243 575.321 206.75 572.389C207.498 570.933 207.957 570.329 209.42 568.87C214.65 563.654 222.72 558.401 230.741 554.991C233.531 553.805 239.422 551.759 239.584 551.92C239.634 551.971 239.506 552.538 239.299 553.18C238.719 554.982 238.526 556.166 238.526 557.927C238.526 561.62 240 564.232 242.89 565.658C245.323 566.858 248.211 566.744 252.705 565.272C256.683 563.968 261.641 561.556 266.488 558.566C267.544 557.915 268.44 557.412 268.475 557.448C268.512 557.485 268.169 558.497 267.713 559.697C266.453 563.011 266.64 564.396 268.436 565.081C270 565.677 270.265 565.527 273.917 561.966C279.17 556.844 284.282 552.335 287.162 550.283C288.435 549.377 291.132 547.78 291.391 547.78C291.623 547.78 291.553 548.726 291.247 549.723C290.756 551.324 290.239 554.784 290.24 556.448C290.248 559.636 291.132 562.124 292.871 563.839C294.016 564.968 294.591 565.342 295.988 565.864C297.434 566.404 298.805 566.531 300.577 566.289C303.493 565.89 306.779 564.54 309.978 562.426L311.646 561.323L311.756 562.277C312.076 565.057 314 567.003 317.268 567.848C318.757 568.233 322.606 568.245 324.715 567.871C330.628 566.824 337.134 563.565 344.561 557.932C347.53 555.68 351.163 552.495 351.497 551.85C352.418 550.072 351.182 547.953 349.235 547.971C348.288 547.98 347.984 548.173 345.714 550.2C338.784 556.389 331.464 560.715 325.247 562.298C321.485 563.256 317.765 563.093 317.007 561.938C316.738 561.531 316.738 561.399 316.999 560.504C317.157 559.962 317.837 558.596 318.514 557.469L319.741 555.419L321.624 554.726C325.996 553.117 329.846 550.935 331.939 548.879C333.134 547.704 334.078 545.968 334.27 544.596C334.533 542.705 333.271 540.414 331.484 539.541C330.586 539.102 330.307 539.05 329.418 539.155C328.228 539.294 327.731 539.522 325.826 540.803C323.993 542.034 321.67 544.163 319.615 546.495C317.468 548.928 312.39 553.942 310.72 555.278C307.823 557.593 303.986 559.844 301.612 560.621C299.484 561.318 297.464 561.306 296.674 560.593C295.23 559.289 295.121 555.569 296.381 550.681C297.178 547.589 297.202 545.874 296.474 544.39C295.493 542.395 293.636 541.573 291.327 542.111C290.652 542.269 289.627 542.606 289.051 542.861C286.506 543.984 281.803 547.524 278.237 551.001C276.886 552.318 275.781 553.36 275.781 553.317C275.781 553.273 276.365 551.744 277.079 549.918C278.482 546.327 278.623 545.505 278.015 544.507C277.466 543.612 276.226 543.074 275.186 543.282C274.191 543.481 273.513 544.395 272.621 546.744L271.796 548.916L268.923 550.823C261.719 555.603 254.44 559.483 250.574 560.604C248.702 561.147 246.952 561.336 245.898 561.11C244.794 560.874 244.349 560.536 243.978 559.649C242.942 557.174 245.224 550.886 249.393 544.727C250.6 542.947 250.646 542.833 250.655 541.732C250.665 540.709 250.607 540.526 250.11 539.998C249.037 538.859 248.044 538.733 246.761 539.571C246.254 539.903 243.904 543.308 242.972 545.063C242.565 545.828 242.439 545.93 241.899 545.93C241.561 545.93 240.519 546.144 239.581 546.407C228.691 549.457 219.11 554.388 210.723 561.26L209.148 562.55L208.919 560.409C208.469 556.187 207.46 553.668 205.157 551.011C204.711 550.497 204.421 549.976 204.421 549.687C204.421 548.479 205.859 547.193 208.715 545.844C211.897 544.342 215.786 543.482 219.527 543.454C222.908 543.428 224.429 544.125 224.686 545.817C224.954 547.585 227.1 548.507 228.625 547.509C230.416 546.338 230.126 543.2 228.015 540.925C226.463 539.251 224.344 538.353 221.276 538.068C219.611 537.914 214.691 538.495 211.857 539.18C204.996 540.838 199.928 544.539 199.303 548.347C199.203 548.958 198.989 549.143 196.387 550.867C189.213 555.621 181.951 559.489 178.101 560.604C176.231 561.147 174.481 561.336 173.426 561.11C172.322 560.874 171.877 560.536 171.506 559.649C170.47 557.174 172.753 550.886 176.922 544.727C178.127 542.947 178.175 542.833 178.185 541.732C178.193 540.709 178.136 540.526 177.638 539.998C176.571 538.865 175.571 538.733 174.308 539.559C173.48 540.1 171.08 543.834 169.346 547.276L168.342 549.271L166.317 550.772C164.049 552.454 158.121 556.396 156.138 557.54C152.67 559.541 147.913 561.623 147.455 561.34C147.149 561.151 147.479 557.054 147.971 554.95C148.615 552.191 149.448 549.383 150.409 546.729C151.31 544.243 151.404 543.356 150.863 542.469C150.163 541.323 148.351 540.892 147.346 541.632C147.085 541.825 145.7 543.532 144.271 545.426C140.58 550.315 138.104 553.23 135.161 556.153C132.206 559.088 131.081 559.981 129.226 560.867C127.291 561.791 127.22 561.746 127.238 559.617C127.25 558.183 127.381 557.409 127.953 555.366C128.338 553.992 128.811 552.559 129.004 552.182C129.197 551.804 129.355 551.383 129.355 551.246C129.355 550.846 130.586 547.901 131.967 544.997C133.384 542.019 133.504 541.37 132.823 540.36C131.801 538.843 129.92 538.702 128.66 540.049C128.213 540.527 126.4 544.379 125.072 547.673L124.258 549.694L121.663 552.056C111.535 561.278 98.0401 570.945 89.4119 575.159C83.9382 577.832 80.1257 578.915 76.1594 578.922C72.9597 578.927 70.9933 578.156 69.1248 576.162C67.933 574.89 67.2544 573.649 66.7577 571.834C66.2161 569.855 66.3184 564.866 66.9659 561.685C68.2689 555.282 70.8549 548.549 75.3981 539.731C83.0693 524.842 93.2739 509.849 105.017 496.213C109.903 490.539 114.575 486.053 115.434 486.21C115.576 486.236 115.868 486.492 116.083 486.78C116.443 487.263 116.472 487.534 116.464 490.296C116.456 492.942 116.394 493.534 115.928 495.416C115.638 496.586 115.363 497.941 115.316 498.427C115.237 499.254 115.277 499.354 115.958 500.034C116.779 500.854 117.377 501.065 118.361 500.88C119.395 500.687 120.166 499.795 120.613 498.275C121.605 494.899 122.125 490.389 121.793 488.043C121.409 485.334 120.378 483.345 118.705 482.084C116.921 480.739 115.18 480.454 113.507 481.235ZM182.643 524.07C181.83 524.571 181.65 524.83 179.918 527.982C178.179 531.145 178.035 531.489 178.069 532.401C178.134 534.151 180.36 535.241 181.923 534.29C182.704 533.814 186.265 527.668 186.382 526.594C186.601 524.582 184.315 523.039 182.643 524.07ZM255.115 524.07C254.301 524.571 254.121 524.83 252.388 527.982C250.652 531.145 250.507 531.489 250.54 532.401C250.605 534.151 252.831 535.241 254.394 534.29C255.176 533.814 258.737 527.668 258.853 526.594C259.072 524.582 256.787 523.039 255.115 524.07Z" fill="#F6AC33"/>
<path fill-rule="evenodd" clip-rule="evenodd" d="M456.891 466.038C453.405 466.271 451.479 466.558 450.979 466.922C449.826 467.759 449.559 469.472 450.434 470.42C451.235 471.287 451.852 471.424 453.876 471.18C454.871 471.06 457.271 470.961 459.208 470.961C465.873 470.96 469.942 472.175 473.071 475.101C475.056 476.958 476.123 478.966 476.85 482.211C477.213 483.828 477.258 488.925 476.93 491.194C475.365 502.016 470.489 514.161 462.037 528.274C451.064 546.598 435.838 564.167 424.377 571.726C420.548 574.252 417.512 575.521 414.876 575.701C412.094 575.89 410.71 575.227 409.79 573.269C409.042 571.672 408.819 570.305 408.834 567.427C408.871 560.579 411.953 549.879 418.989 532.178C420.04 529.533 423.126 521.997 425.849 515.433C428.57 508.869 431.243 502.313 431.788 500.864C432.989 497.672 434.529 492.814 434.84 491.236C435.193 489.45 435.002 487.591 434.314 486.126C433.789 485.005 433.649 484.852 432.757 484.437C431.543 483.873 430.394 483.846 429.484 484.358C428.381 484.979 427.21 486.861 424.088 493.027C420.96 499.206 419.521 501.658 417.353 504.509C413.738 509.259 410.148 512.087 406.285 513.227C405.11 513.574 404.419 513.639 401.75 513.656C398.403 513.677 398.102 513.744 397.413 514.618C396.605 515.644 396.768 517.533 397.745 518.468C398.996 519.664 404.274 519.759 408.096 518.653C414.685 516.747 420.533 511.295 425.938 502.018C426.472 501.103 426.85 500.52 426.778 500.723C425.912 503.189 424.049 507.794 420.978 515.063C413.597 532.532 411.088 538.937 408.369 547.259C404.462 559.214 403.151 568.005 404.458 573.495C404.838 575.093 406.024 577.295 407.084 578.371C408.296 579.601 409.303 580.208 411.223 580.866C412.513 581.308 412.956 581.366 415.002 581.361C416.967 581.355 417.571 581.279 418.987 580.857C426.663 578.57 437.252 570.056 448.115 557.435C458.024 545.923 467.606 531.42 473.931 518.361C479.593 506.669 482.507 496.966 482.781 488.881C482.977 483.047 481.947 478.475 479.634 474.939C476.244 469.753 470.591 466.822 462.804 466.212C461.622 466.119 460.328 466.007 459.931 465.964C459.533 465.92 458.165 465.953 456.891 466.038ZM603.225 492.936C602.919 493.071 602.47 493.397 602.228 493.659C601.87 494.046 598.17 503.315 596.378 508.316L596.044 509.247L592.543 509.95C590.619 510.337 586.478 511.224 583.344 511.92C572.305 514.372 572.587 514.276 571.945 515.789L571.569 516.681L570.92 516.242C570.17 515.734 569.091 515.665 568.298 516.075C567.451 516.512 558.706 526.572 558.489 527.359C558.118 528.695 558.78 529.88 560.146 530.333C561.879 530.908 561.94 530.862 566.737 525.479C571.866 519.725 571.626 520.023 572.027 518.869C572.205 518.353 572.353 518.036 572.357 518.165C572.368 518.565 573.524 519.132 574.331 519.133C574.751 519.133 577.42 518.598 580.262 517.943C587.567 516.26 593.65 514.973 593.763 515.086C593.816 515.139 592.415 519.049 590.647 523.773C588.881 528.498 586.402 535.181 585.142 538.624L582.848 544.885L580.738 546.764C571.958 554.582 563.106 559.219 556.235 559.599C554.715 559.683 554.05 559.639 553.223 559.399C551.835 558.996 551.497 558.525 551.792 557.404C552.02 556.54 552.901 554.826 553.976 553.151C554.635 552.127 554.687 552.091 556.509 551.421C562.622 549.172 567.093 546.137 568.459 543.309C569.489 541.176 569.354 539.46 568.012 537.615C567.293 536.627 565.793 535.783 564.774 535.793C562.298 535.815 557.586 539.397 553.31 544.505L551.976 546.099L550.18 546.597C544.369 548.206 537.051 551.751 530.803 555.984C530.219 556.379 529.778 556.597 529.823 556.468C530.06 555.779 531.278 549.68 531.582 547.658C532.321 542.728 532.28 541.841 531.241 540.203C530.877 539.632 530.753 539.268 530.863 539.096C531.239 538.502 531.022 537.671 530.136 536.319C527.914 532.927 524.24 530.974 521.104 531.519C520.433 531.636 519.454 531.901 518.928 532.108C516.826 532.934 514.257 535.049 512.852 537.105C511.86 538.559 510.059 541.9 509.356 543.587C508.804 544.916 508.639 545.118 506.717 546.825C497.95 554.61 489.131 559.22 482.281 559.599C480.761 559.683 480.095 559.639 479.269 559.399C477.88 558.996 477.543 558.525 477.838 557.404C478.066 556.54 478.946 554.826 480.021 553.151C480.681 552.127 480.733 552.091 482.555 551.421C488.668 549.172 493.138 546.137 494.504 543.309C495.535 541.176 495.4 539.46 494.058 537.615C493.339 536.627 491.839 535.783 490.82 535.793C488.957 535.81 486.062 537.622 482.857 540.778C480.544 543.055 477.832 546.18 477.341 547.138C477.176 547.459 476.887 547.92 476.696 548.162C476.507 548.405 476.351 548.78 476.351 548.995C476.349 549.21 475.728 550.412 474.969 551.666C473.189 554.606 472.811 555.614 472.696 557.713C472.62 559.129 472.67 559.542 473.022 560.473C473.79 562.499 475.665 563.952 478.318 564.574C479.322 564.81 480.231 564.855 482.562 564.785C485.111 564.708 485.836 564.614 487.721 564.117C490.43 563.404 493.832 562.023 496.488 560.557C498.43 559.486 503.279 556.32 505.156 554.9L506.065 554.212L505.933 555.373C505.662 557.765 506.521 559.645 508.298 560.559C509.141 560.992 509.269 561.007 510.396 560.814C511.125 560.69 512.009 560.368 512.648 559.994C514.027 559.187 520.683 552.552 523.979 548.697C525.347 547.096 526.492 545.812 526.523 545.843C526.601 545.921 525.767 550.545 525.183 553.268C524.922 554.491 524.322 556.845 523.851 558.497L522.994 561.502L520.943 563.235C510.33 572.198 500.573 584.192 495.244 594.828C491.118 603.062 489.971 609.496 491.941 613.352C492.517 614.481 494.252 616.114 495.537 616.736C496.981 617.437 499.501 617.603 501.042 617.1C505.101 615.772 508.166 612.756 512.096 606.221C516.856 598.304 522.242 584.48 526.016 570.494C526.837 567.449 527.51 564.863 527.51 564.748C527.51 564.255 534.988 559.107 538.796 556.98C541.904 555.245 547.776 552.626 548.018 552.868C548.067 552.917 547.892 553.381 547.629 553.898C546.545 556.038 546.295 558.641 546.995 560.512C547.739 562.494 549.637 563.956 552.272 564.574C553.277 564.81 554.185 564.855 556.517 564.785C559.065 564.708 559.79 564.614 561.675 564.117C566.661 562.804 572.105 559.991 578.149 555.602L579.209 554.833L578.551 556.643C570.863 577.749 566.231 591.626 565.404 596.035C565.119 597.555 565.121 597.627 565.49 598.381C566.211 599.856 567.69 600.465 569.05 599.847C570.323 599.269 576.266 594.224 576.779 593.286C577.263 592.404 577.246 591.424 576.735 590.645C576.034 589.578 574.099 589.238 573.065 590.001C572.764 590.222 572.488 590.371 572.448 590.332C572.125 590.009 584.831 554.342 595.772 524.87C599.903 513.735 599.89 513.768 600.17 513.768C600.285 513.768 601.818 513.56 603.575 513.306C606.333 512.907 612.359 512.422 612.559 512.584C612.596 512.614 612.45 512.862 612.235 513.135C611.66 513.864 611.693 515.229 612.303 515.952C612.945 516.712 613.957 517.16 614.711 517.019C615.426 516.885 617.964 515.05 618.967 513.943C619.828 512.989 620.184 512.166 620.179 511.137C620.171 509.568 619.015 507.997 617.465 507.45C616.207 507.006 609.067 507.157 605.264 507.707C603.531 507.958 602.103 508.154 602.091 508.144C602.079 508.133 603.106 505.377 604.372 502.018C605.638 498.66 606.689 495.612 606.706 495.246C606.728 494.803 606.585 494.358 606.287 493.922C605.477 492.741 604.426 492.403 603.225 492.936ZM494.304 516.084C494.034 516.231 491.767 518.678 489.265 521.523C484.51 526.93 484.179 527.425 484.516 528.597C484.801 529.591 485.2 530.005 486.191 530.333C487.934 530.911 487.962 530.89 493.042 525.192C497.711 519.953 498.352 519.042 498.143 517.931C497.828 516.255 495.793 515.276 494.304 516.084ZM707.021 520.773C706.207 521.274 706.027 521.533 704.294 524.685C702.555 527.848 702.413 528.192 702.446 529.105C702.511 530.854 704.737 531.944 706.3 530.993C707.082 530.517 710.642 524.371 710.759 523.297C710.978 521.285 708.692 519.742 707.021 520.773ZM659.847 535.833C659.51 536.062 659.08 536.457 658.891 536.712C658.704 536.966 658.07 538.853 657.482 540.905L656.416 544.636L655.214 545.456C649.362 549.441 642.406 552.57 637.179 553.569C634.781 554.027 631.693 553.985 630.062 553.473C627.991 552.823 626.571 551.031 625.997 548.342C625.619 546.573 625.75 543.105 626.301 540.32C626.766 537.964 626.659 537.23 625.736 536.455C624.596 535.498 623.133 535.659 621.841 536.885L621.113 537.577L620.36 536.752L619.61 535.927L617.995 536.009C615.988 536.112 614.457 536.72 611.884 538.44C606.767 541.861 601.564 548.077 599.953 552.694C599.062 555.249 599.318 557.186 600.758 558.82C603.332 561.74 605.269 560.896 613.017 553.472C614.937 551.632 617.402 549.166 618.496 547.991L620.483 545.857L620.711 547.773C621.371 553.321 624.041 556.889 628.716 558.468C633.989 560.248 641.303 558.881 650.165 554.459C652.329 553.377 654.103 552.542 654.103 552.603C654.103 552.664 653.217 555.81 652.133 559.596C649.942 567.257 649.933 567.323 651.051 568.438C652.083 569.469 653.681 569.49 654.617 568.485C654.826 568.259 655.579 566.742 656.287 565.114C660.259 555.987 663.643 549.512 666.242 546.066L667.293 544.672L668.105 545.75C669.194 547.197 671.4 549.244 672.696 550.011C675.155 551.466 677.852 552.117 681.442 552.121C684.2 552.124 686.085 551.861 689.114 551.049C690.072 550.792 690.878 550.605 690.908 550.633C690.936 550.661 690.841 551.184 690.699 551.793C690.395 553.082 690.358 555.872 690.628 557.044C691.166 559.379 692.686 561.32 694.784 562.355C697.23 563.562 700.113 563.45 704.611 561.973C708.344 560.747 712.435 558.811 717 556.109C718.003 555.516 718.846 555.03 718.872 555.03C718.9 555.03 718.807 555.464 718.67 555.995C717.812 559.298 718.976 562.233 721.728 563.697C723.533 564.657 724.931 564.887 728.336 564.785C730.882 564.708 731.609 564.614 733.487 564.119C738.241 562.867 742.889 560.548 748.474 556.643L750.45 555.262L750.02 556.395C749.783 557.018 749.499 557.762 749.388 558.049C749.071 558.87 749.145 560.232 749.542 560.883C750.003 561.637 751.302 562.157 752.27 561.976C752.841 561.869 753.521 561.3 756.218 558.67C761.639 553.382 766.479 549.114 769.456 546.994C770.736 546.081 773.435 544.483 773.694 544.483C773.926 544.483 773.856 545.429 773.55 546.426C773.059 548.027 772.542 551.487 772.543 553.152C772.555 557.904 774.56 561.157 778.38 562.616C779.907 563.2 782.574 563.214 784.712 562.651C787.559 561.9 790.702 560.317 793.803 558.072L794.954 557.239L794.683 557.886C794.3 558.801 794.339 560.181 794.769 560.883C795.228 561.637 796.528 562.157 797.495 561.976C798.068 561.869 798.746 561.3 801.443 558.67C806.865 553.382 811.704 549.114 814.681 546.994C815.962 546.081 818.66 544.483 818.92 544.483C819.151 544.483 819.081 545.429 818.775 546.426C818.284 548.027 817.767 551.487 817.769 553.152C817.776 556.195 818.647 558.774 820.206 560.367C822.369 562.575 824.94 563.424 828.135 562.988C831.008 562.595 834.4 561.195 837.507 559.118L839.175 558.003L839.286 558.968C839.614 561.81 841.623 563.796 844.965 564.58C845.94 564.809 846.872 564.854 849.184 564.785C851.732 564.708 852.457 564.614 854.342 564.117C860.909 562.388 868.317 558.037 876.243 551.257C877.538 550.148 878.756 548.983 878.949 548.666C879.692 547.449 879.225 545.575 878.022 544.955C877.364 544.615 876.22 544.591 875.655 544.906C875.435 545.029 874.36 545.922 873.27 546.888C864.542 554.625 855.73 559.221 848.902 559.599C847.382 559.683 846.717 559.639 845.89 559.399C844.502 558.996 844.164 558.525 844.459 557.404C844.687 556.54 845.567 554.826 846.644 553.151C847.302 552.127 847.354 552.091 849.176 551.421C855.289 549.172 859.76 546.137 861.126 543.309C862.156 541.176 862.021 539.46 860.679 537.615C859.986 536.661 858.475 535.787 857.521 535.787C855.163 535.787 851.156 538.648 847.143 543.197C844.843 545.803 840.218 550.383 838.433 551.824C834.435 555.049 830.159 557.325 827.229 557.787C826.083 557.968 824.697 557.743 824.202 557.296C822.76 555.993 822.649 552.215 823.911 547.351C824.704 544.295 824.729 542.573 824.002 541.093C823.02 539.098 821.164 538.276 818.855 538.814C818.18 538.972 817.155 539.309 816.579 539.565C814.034 540.688 809.332 544.227 805.765 547.704C804.414 549.021 803.31 550.063 803.31 550.02C803.31 549.977 803.893 548.448 804.607 546.621C805.321 544.795 805.904 543.023 805.904 542.684C805.904 540.747 804.121 539.462 802.392 540.152C801.388 540.554 801.058 541.065 800.01 543.829L799.126 546.164L796.934 548.381C791.864 553.503 786.087 557.143 782.004 557.787C780.858 557.968 779.472 557.743 778.977 557.296C777.535 555.993 777.424 552.215 778.686 547.351C779.479 544.295 779.503 542.573 778.777 541.093C777.794 539.098 775.937 538.276 773.63 538.814C772.955 538.972 771.93 539.309 771.353 539.565C768.809 540.688 764.106 544.227 760.54 547.704C759.189 549.021 758.084 550.063 758.084 550.02C758.084 549.977 758.668 548.448 759.382 546.621C760.095 544.795 760.679 543.023 760.679 542.684C760.679 540.747 758.896 539.462 757.167 540.152C756.196 540.54 755.855 541.037 754.945 543.392L754.199 545.317L752.318 546.982C743.672 554.635 734.847 559.223 728.054 559.599C726.534 559.683 725.869 559.639 725.042 559.399C723.654 558.996 723.316 558.525 723.611 557.404C723.839 556.54 724.72 554.826 725.795 553.151C726.454 552.127 726.506 552.091 728.328 551.421C734.441 549.172 738.912 546.137 740.278 543.309C741.308 541.176 741.173 539.46 739.831 537.615C739.138 536.661 737.627 535.787 736.673 535.787C734.337 535.787 730.291 538.66 726.382 543.097C724.962 544.708 724.46 545.112 721.107 547.337C713.009 552.708 706.064 556.363 701.838 557.474C700.915 557.718 699.766 557.869 698.819 557.873C697.082 557.88 696.513 557.607 695.946 556.497C694.752 554.161 696.991 547.842 701.286 541.43C702.302 539.912 702.541 539.414 702.611 538.655C702.681 537.899 702.618 537.614 702.263 537.099C701.31 535.711 700.114 535.385 698.848 536.167C698.094 536.632 696.189 539.383 694.658 542.219C693.599 544.179 693.846 544.018 689.918 545.333C684.189 547.251 679.142 547.39 675.604 545.729C674.088 545.018 672.275 543.233 671.183 541.379C669.841 539.098 668.297 538.476 666.058 539.314C665.217 539.628 664.663 540.016 663.788 540.905C663.15 541.552 662.629 542.013 662.629 541.931C662.629 541.849 662.835 541.078 663.087 540.218C663.341 539.358 663.549 538.355 663.551 537.988C663.556 537.154 662.935 536.215 662.075 535.759C661.221 535.306 660.59 535.327 659.847 535.833ZM521.671 536.7C518.516 537.47 515.449 541.651 513.087 548.396C512.257 550.764 511.31 554.093 511.43 554.213C511.586 554.369 517.882 547.797 520.655 544.584C522.233 542.756 524.025 540.859 524.637 540.368C525.248 539.876 525.775 539.397 525.808 539.302C525.912 539.002 524.168 537.298 523.354 536.905C522.513 536.498 522.503 536.497 521.671 536.7ZM616.123 541.896C612.479 543.9 607.484 549.07 605.51 552.88L605.138 553.597L605.697 553.199C606.478 552.645 614.414 544.866 616.175 542.931C616.972 542.054 617.512 541.339 617.374 541.341C617.237 541.343 616.674 541.592 616.123 541.896ZM518.327 572.867C514.998 575.95 509.594 582.065 506.862 585.837C500.499 594.628 496.375 603.555 496.306 608.689C496.278 610.759 496.578 611.523 497.581 611.941C499.173 612.606 500.604 612.073 502.712 610.029C507.384 605.498 511.851 596.774 516.93 582.261C518.131 578.83 520.222 571.563 520.057 571.398C520.018 571.36 519.239 572.021 518.327 572.867Z" fill="#F6AC33"/>
</svg>
